<svg xmlns="http://www.w3.org/2000/svg" viewBox="0 0 800 800" xml:space="preserve"><path d="M367.346 379.268c64.151-58.186 78.058-151.849 39.372-228.213-5.397-10.653-21.409-1.273-16.02 9.364 32.014 63.193 23.97 140.029-23.802 193.059-40.868 45.366-104.73 65.802-164.315 51.902-7.317-1.707-14.337-3.903-21.114-6.452l67.263-154.275c.054-.125.07-.257.12-.384.706-1.299 1.146-2.751 1.146-4.298V71.219c27.641 1.579 55.194 9.715 80.149 24.459 10.302 6.088 19.647-9.944 9.364-16.02-66.237-39.136-150.169-36.82-212.065 9.986-54.691 41.358-82.866 110.273-72.897 178.117 21.489 146.264 203.599 210.552 312.799 111.507zM72.685 249.249h153.939l-62 142.203c-54.832-27.979-87.977-83.851-91.939-142.203zm48.017-129.294c30.52-30.519 70.116-46.777 110.741-48.789v159.529H72.374c1.558-39.701 16.857-79.268 48.328-110.74z"/><path d="M370.771 128.985c14.923 0 14.947-23.191 0-23.191-14.922 0-14.947 23.191 0 23.191zM197.095 542.988c11.939.038 11.956-18.515 0-18.553l-100.097-.322c-11.94-.038-11.956 18.515 0 18.553l100.097.322zM76.67 539.011c3.308-3.468 3.176-8.96-.292-12.268a8.677 8.677 0 0 0-12.268.292 8.678 8.678 0 0 0 12.56 11.976zM96.998 593.164l154.741.322c11.939.025 11.956-18.528 0-18.553l-154.741-.322c-11.939-.025-11.957 18.528 0 18.553zM64.402 589.801a8.677 8.677 0 0 0 12.268-.292 8.677 8.677 0 0 0-.292-12.268 8.678 8.678 0 1 0-11.976 12.56zM96.998 643.478l154.741.322c11.939.025 11.956-18.528 0-18.553l-154.741-.322c-11.939-.025-11.957 18.528 0 18.553zM64.402 640.115a8.677 8.677 0 0 0 12.268-.292 8.677 8.677 0 0 0-.292-12.268 8.678 8.678 0 0 0-11.976 12.56zM418.034 747.74c10.336 0 18.748-8.411 18.748-18.752v-83.982c0-10.341-8.411-18.752-18.748-18.752h-60.442c-10.341 0-18.752 8.411-18.752 18.752v83.982c0 10.341 8.411 18.752 18.752 18.752h60.442zm-60.443-102.933 60.637.199v83.982c0 .088-.109.199-.195.199l-60.642-.199.2-84.181zM629.609 563.73v165.172c0 10.388 8.452 18.838 18.838 18.838h60.266c10.386 0 18.838-8.45 18.838-18.838V563.73c0-10.388-8.452-18.838-18.838-18.838h-60.266c-10.386-.001-18.838 8.449-18.838 18.838zm79.389 0v165.172c0 .136-.149.285-.285.285l-60.551-.285.285-165.458 60.551.286zM582.024 608.822c0-.245-.057-.484-.078-.727-.785-13.445-11.941-24.152-25.58-24.152h-49.834c-12.379 0-22.453 10.071-22.453 22.453v118.892c0 12.381 10.074 22.453 22.453 22.453h53.036c12.379 0 22.453-10.071 22.453-22.453v-13.677l.002-.017v-32.52c0-11.938-18.553-11.958-18.553 0v.001h-.002v46.213c0 2.113-1.785 3.9-3.9 3.9h-53.036c-2.115 0-3.9-1.787-3.9-3.9V606.396c0-2.113 1.785-3.9 3.9-3.9h49.834a7.11 7.11 0 0 1 7.102 7.102h.002v13.191c0 4.852 4.267 9.501 9.276 9.277 5.026-.225 9.276-4.076 9.276-9.277.002-4.656.002-9.311.002-13.967z"/><path d="M572.747 640.93a8.677 8.677 0 1 0 0 17.354 8.677 8.677 0 0 0 0-17.354zM663.32 422.349l-56.537 53.566c-5.016-3.018-10.865-4.787-17.134-4.787-8.967 0-17.104 3.572-23.109 9.346l-66.356-41.02c.797-2.855 1.256-5.85 1.256-8.957 0-18.408-14.979-33.385-33.387-33.385s-33.387 14.977-33.387 33.385c0 3.274.494 6.431 1.376 9.423l-63.784 40.7c-5.884-5.175-13.573-8.342-22.004-8.342-18.408 0-33.383 14.977-33.383 33.387 0 18.408 14.975 33.385 33.383 33.385s33.387-14.977 33.387-33.385c0-3.273-.494-6.429-1.376-9.42l63.786-40.701c5.883 5.174 13.572 8.341 22.002 8.341 8.602 0 16.43-3.299 22.355-8.662l66.853 41.327c-.63 2.557-1 5.214-1 7.962 0 18.41 14.979 33.387 33.387 33.387s33.383-14.977 33.383-33.387c0-5.407-1.32-10.5-3.612-15.022l57.02-54.023c8.686-8.228-4.449-21.332-13.119-13.118zm-313.066 98.149c-8.176 0-14.83-6.654-14.83-14.832 0-8.18 6.654-14.834 14.83-14.834 8.18 0 14.834 6.654 14.834 14.834 0 8.178-6.654 14.832-14.834 14.832zm117.799-75.166c-8.18 0-14.834-6.654-14.834-14.834 0-8.178 6.654-14.832 14.834-14.832s14.834 6.654 14.834 14.832c.001 8.18-6.653 14.834-14.834 14.834zm121.596 74.015c-8.18 0-14.834-6.654-14.834-14.834 0-8.178 6.654-14.832 14.834-14.832 8.176 0 14.83 6.654 14.83 14.832 0 8.18-6.654 14.834-14.83 14.834zM706.264 406.389a8.674 8.674 0 1 0-17.348 0 8.674 8.674 0 0 0 17.348 0z"/><path d="m738.131 356.923-59.551 1.769c-11.913.354-11.963 18.908 0 18.553l49.4-1.467-4.689 51.409c-1.085 11.886 17.475 11.812 18.553 0l5.563-60.987c.447-4.899-4.612-9.416-9.276-9.277zM524.414 144.986l100.097.322c11.94.038 11.956-18.515 0-18.553l-100.097-.322c-11.939-.038-11.956 18.515 0 18.553zM503.795 129.064a8.678 8.678 0 1 0-11.975 12.56 8.678 8.678 0 0 0 11.975-12.56zM679.155 177.254l-154.742-.322c-11.939-.025-11.957 18.528 0 18.553l154.742.322c11.939.024 11.956-18.529 0-18.553zM503.795 179.562a8.678 8.678 0 1 0-11.975 12.56 8.678 8.678 0 0 0 11.975-12.56zM679.155 227.567l-154.742-.322c-11.939-.025-11.957 18.528 0 18.553l154.742.322c11.939.025 11.956-18.528 0-18.553zM491.527 230.167a8.678 8.678 0 1 0 12.561 11.976 8.678 8.678 0 0 0-12.561-11.976z"/><path fill="#F16235" d="M72.685 249.249h153.939l-62 142.203c-54.832-27.979-87.977-83.851-91.939-142.203z"/><path fill="#58C7DE" d="M120.702 119.955c30.52-30.519 70.116-46.777 110.741-48.789v159.529H72.374c1.558-39.701 16.857-79.268 48.328-110.74zM357.591 644.807l60.637.199v83.982c0 .088-.109.199-.195.199l-60.642-.199.2-84.181z"/><path fill="#F16235" d="M708.998 563.73v165.172c0 .136-.149.285-.285.285l-60.551-.285.285-165.458 60.551.286zM350.254 520.498c-8.176 0-14.83-6.654-14.83-14.832 0-8.18 6.654-14.834 14.83-14.834 8.18 0 14.834 6.654 14.834 14.834 0 8.178-6.654 14.832-14.834 14.832z"/><path fill="#58C7DE" d="M468.053 445.332c-8.18 0-14.834-6.654-14.834-14.834 0-8.178 6.654-14.832 14.834-14.832s14.834 6.654 14.834 14.832c.001 8.18-6.653 14.834-14.834 14.834z"/><path fill="#F16235" d="M589.649 519.347c-8.18 0-14.834-6.654-14.834-14.834 0-8.178 6.654-14.832 14.834-14.832 8.176 0 14.83 6.654 14.83 14.832 0 8.18-6.654 14.834-14.83 14.834z"/></svg>